<svg width="50" height="53" viewBox="0 0 67 65" fill="none" xmlns="http://www.w3.org/2000/svg">
<path d="M0 8C0 3.58172 3.58172 0 8 0H59C63.4183 0 67 3.58172 67 8V57C67 61.4183 63.4183 65 59 65H8C3.58172 65 0 61.4183 0 57V8Z" fill="#BA2A2A"/>
<path d="M21.7021 22.6846C21.6247 23.7555 21.2282 24.5986 20.5127 25.2139C19.8018 25.8291 18.863 26.1367 17.6963 26.1367C16.4202 26.1367 15.4154 25.7083 14.6816 24.8516C13.9525 23.9902 13.5879 22.8099 13.5879 21.3105V20.7021C13.5879 19.7451 13.7565 18.902 14.0938 18.1729C14.431 17.4437 14.9118 16.8854 15.5361 16.498C16.165 16.1061 16.8942 15.9102 17.7236 15.9102C18.8721 15.9102 19.7972 16.2178 20.499 16.833C21.2008 17.4482 21.6064 18.3118 21.7158 19.4238H19.665C19.6149 18.7812 19.4349 18.3164 19.125 18.0293C18.8197 17.7376 18.3525 17.5918 17.7236 17.5918C17.04 17.5918 16.5273 17.8379 16.1855 18.3301C15.8483 18.8177 15.6751 19.5765 15.666 20.6064V21.3584C15.666 22.4339 15.8278 23.2201 16.1514 23.7168C16.4795 24.2135 16.9945 24.4619 17.6963 24.4619C18.3298 24.4619 18.8014 24.3184 19.1113 24.0312C19.4258 23.7396 19.6058 23.2907 19.6514 22.6846H21.7021ZM28.668 23.9492H25.0723L24.3887 26H22.208L25.9131 16.0469H27.8135L31.5391 26H29.3584L28.668 23.9492ZM25.626 22.2881H28.1143L26.8633 18.5625L25.626 22.2881ZM34.6494 26H32.5986V16.0469H34.6494V26ZM40.2412 19.4785L42.1074 16.0469H44.4658L41.5674 20.9824L44.541 26H42.1553L40.2412 22.5137L38.3271 26H35.9414L38.915 20.9824L36.0166 16.0469H38.375L40.2412 19.4785ZM51.1992 23.9492H47.6035L46.9199 26H44.7393L48.4443 16.0469H50.3447L54.0703 26H51.8896L51.1992 23.9492ZM48.1572 22.2881H50.6455L49.3945 18.5625L48.1572 22.2881Z" fill="black" fill-opacity="0.5"/>
<path d="M34 33V55" stroke="white" stroke-width="2" stroke-linecap="round" stroke-linejoin="round"/>
<path d="M39 37H31.5C30.5717 37 29.6815 37.3687 29.0251 38.0251C28.3687 38.6815 28 39.5717 28 40.5C28 41.4283 28.3687 42.3185 29.0251 42.9749C29.6815 43.6313 30.5717 44 31.5 44H36.5C37.4283 44 38.3185 44.3687 38.9749 45.0251C39.6313 45.6815 40 46.5717 40 47.5C40 48.4283 39.6313 49.3185 38.9749 49.9749C38.3185 50.6313 37.4283 51 36.5 51H28" stroke="white" stroke-width="2" stroke-linecap="round" stroke-linejoin="round"/>
</svg>
