<svg width="130" height="201" viewBox="0 0 160 231" fill="none" xmlns="http://www.w3.org/2000/svg">
    <path d="M0 0H160V231C94.1597 213.67 59.0965 213.511 0 231V0Z" fill="#2E2D6B"/>
    <path d="M18.2676 75.3828C17.793 75.9512 17.1221 76.3936 16.2549 76.71C15.3877 77.0205 14.4268 77.1758 13.3721 77.1758C12.2646 77.1758 11.292 76.9355 10.4541 76.4551C9.62207 75.9688 8.97754 75.2656 8.52051 74.3457C8.06934 73.4258 7.83789 72.3447 7.82617 71.1025V70.2324C7.82617 68.9551 8.04004 67.8506 8.46777 66.9189C8.90137 65.9814 9.52246 65.2666 10.3311 64.7744C11.1455 64.2764 12.0977 64.0273 13.1875 64.0273C14.7051 64.0273 15.8916 64.3906 16.7471 65.1172C17.6025 65.8379 18.1094 66.8896 18.2676 68.2725H15.7012C15.584 67.54 15.3232 67.0039 14.9189 66.6641C14.5205 66.3242 13.9697 66.1543 13.2666 66.1543C12.3701 66.1543 11.6875 66.4912 11.2188 67.165C10.75 67.8389 10.5127 68.8408 10.5068 70.1709V70.9883C10.5068 72.3301 10.7617 73.3438 11.2715 74.0293C11.7812 74.7148 12.5283 75.0576 13.5127 75.0576C14.5029 75.0576 15.209 74.8467 15.6309 74.4248V72.2188H13.2314V70.2764H18.2676V75.3828ZM25.1494 72.3154H23.0488V77H20.4121V64.2031H25.167C26.6787 64.2031 27.8447 64.54 28.665 65.2139C29.4854 65.8877 29.8955 66.8398 29.8955 68.0703C29.8955 68.9434 29.7051 69.6729 29.3242 70.2588C28.9492 70.8389 28.3779 71.3018 27.6104 71.6475L30.3789 76.877V77H27.5488L25.1494 72.3154ZM23.0488 70.1797H25.1758C25.8379 70.1797 26.3506 70.0127 26.7139 69.6787C27.0771 69.3389 27.2588 68.873 27.2588 68.2812C27.2588 67.6777 27.0859 67.2031 26.7402 66.8574C26.4004 66.5117 25.876 66.3389 25.167 66.3389H23.0488V70.1797ZM39.1328 74.3633H34.5098L33.6309 77H30.8271L35.5908 64.2031H38.0342L42.8242 77H40.0205L39.1328 74.3633ZM35.2217 72.2275H38.4209L36.8125 67.4375L35.2217 72.2275ZM54.4258 77H51.7891L46.6562 68.5801V77H44.0195V64.2031H46.6562L51.7979 72.6406V64.2031H54.4258V77ZM56.7285 77V64.2031H60.666C61.791 64.2031 62.7959 64.458 63.6807 64.9678C64.5713 65.4717 65.2656 66.1924 65.7637 67.1299C66.2617 68.0615 66.5107 69.1221 66.5107 70.3115V70.9004C66.5107 72.0898 66.2646 73.1475 65.7725 74.0732C65.2861 74.999 64.5977 75.7168 63.707 76.2266C62.8164 76.7363 61.8115 76.9941 60.6924 77H56.7285ZM59.3652 66.3389V74.8818H60.6396C61.6709 74.8818 62.459 74.5449 63.0039 73.8711C63.5488 73.1973 63.8271 72.2334 63.8389 70.9795V70.3027C63.8389 69.002 63.5693 68.0176 63.0303 67.3496C62.4912 66.6758 61.7031 66.3389 60.666 66.3389H59.3652ZM58.5303 93.7373C58.4307 95.1143 57.9209 96.1982 57.001 96.9893C56.0869 97.7803 54.8799 98.1758 53.3799 98.1758C51.7393 98.1758 50.4473 97.625 49.5039 96.5234C48.5664 95.416 48.0977 93.8984 48.0977 91.9707V91.1885C48.0977 89.958 48.3145 88.874 48.748 87.9365C49.1816 86.999 49.7998 86.2812 50.6025 85.7832C51.4111 85.2793 52.3486 85.0273 53.415 85.0273C54.8916 85.0273 56.0811 85.4229 56.9834 86.2139C57.8857 87.0049 58.4072 88.1152 58.5479 89.5449H55.9111C55.8467 88.7188 55.6152 88.1211 55.2168 87.752C54.8242 87.377 54.2236 87.1895 53.415 87.1895C52.5361 87.1895 51.877 87.5059 51.4375 88.1387C51.0039 88.7656 50.7812 89.7412 50.7695 91.0654V92.0322C50.7695 93.415 50.9775 94.4258 51.3936 95.0645C51.8154 95.7031 52.4775 96.0225 53.3799 96.0225C54.1943 96.0225 54.8008 95.8379 55.1992 95.4688C55.6035 95.0938 55.835 94.5166 55.8936 93.7373H58.5303ZM70.7734 91.8916C70.7734 93.1514 70.5508 94.2559 70.1055 95.2051C69.6602 96.1543 69.0215 96.8867 68.1895 97.4023C67.3633 97.918 66.4141 98.1758 65.3418 98.1758C64.2812 98.1758 63.335 97.9209 62.5029 97.4111C61.6709 96.9014 61.0264 96.1748 60.5693 95.2314C60.1123 94.2822 59.8809 93.1924 59.875 91.9619V91.3291C59.875 90.0693 60.1006 88.9619 60.5518 88.0068C61.0088 87.0459 61.6504 86.3105 62.4766 85.8008C63.3086 85.2852 64.2578 85.0273 65.3242 85.0273C66.3906 85.0273 67.3369 85.2852 68.1631 85.8008C68.9951 86.3105 69.6367 87.0459 70.0879 88.0068C70.5449 88.9619 70.7734 90.0664 70.7734 91.3203V91.8916ZM68.1016 91.3115C68.1016 89.9697 67.8613 88.9502 67.3809 88.2529C66.9004 87.5557 66.2148 87.207 65.3242 87.207C64.4395 87.207 63.7568 87.5527 63.2764 88.2441C62.7959 88.9297 62.5527 89.9375 62.5469 91.2676V91.8916C62.5469 93.1982 62.7871 94.2119 63.2676 94.9326C63.748 95.6533 64.4395 96.0137 65.3418 96.0137C66.2266 96.0137 66.9062 95.668 67.3809 94.9766C67.8555 94.2793 68.0957 93.2656 68.1016 91.9355V91.3115ZM76.1348 85.2031L79.4219 94.4844L82.6914 85.2031H86.1543V98H83.5088V94.502L83.7725 88.4639L80.3184 98H78.5078L75.0625 88.4727L75.3262 94.502V98H72.6895V85.2031H76.1348ZM91.9023 85.2031L95.1895 94.4844L98.459 85.2031H101.922V98H99.2764V94.502L99.54 88.4639L96.0859 98H94.2754L90.8301 88.4727L91.0938 94.502V98H88.457V85.2031H91.9023ZM111.607 95.3633H106.984L106.105 98H103.302L108.065 85.2031H110.509L115.299 98H112.495L111.607 95.3633ZM107.696 93.2275H110.896L109.287 88.4375L107.696 93.2275ZM126.9 98H124.264L119.131 89.5801V98H116.494V85.2031H119.131L124.272 93.6406V85.2031H126.9V98ZM129.203 98V85.2031H133.141C134.266 85.2031 135.271 85.458 136.155 85.9678C137.046 86.4717 137.74 87.1924 138.238 88.1299C138.736 89.0615 138.985 90.1221 138.985 91.3115V91.9004C138.985 93.0898 138.739 94.1475 138.247 95.0732C137.761 95.999 137.072 96.7168 136.182 97.2266C135.291 97.7363 134.286 97.9941 133.167 98H129.203ZM131.84 87.3389V95.8818H133.114C134.146 95.8818 134.934 95.5449 135.479 94.8711C136.023 94.1973 136.302 93.2334 136.313 91.9795V91.3027C136.313 90.002 136.044 89.0176 135.505 88.3496C134.966 87.6758 134.178 87.3389 133.141 87.3389H131.84ZM147.546 94.6426C147.546 94.1445 147.37 93.7637 147.019 93.5C146.667 93.2305 146.034 92.9492 145.12 92.6562C144.206 92.3574 143.482 92.0645 142.949 91.7773C141.496 90.9922 140.77 89.9346 140.77 88.6045C140.77 87.9131 140.963 87.2979 141.35 86.7588C141.742 86.2139 142.302 85.7891 143.028 85.4844C143.761 85.1797 144.581 85.0273 145.489 85.0273C146.403 85.0273 147.218 85.1943 147.933 85.5283C148.647 85.8564 149.201 86.3223 149.594 86.9258C149.992 87.5293 150.191 88.2148 150.191 88.9824H147.555C147.555 88.3965 147.37 87.9424 147.001 87.6201C146.632 87.292 146.113 87.1279 145.445 87.1279C144.801 87.1279 144.3 87.2656 143.942 87.541C143.585 87.8105 143.406 88.168 143.406 88.6133C143.406 89.0293 143.614 89.3779 144.03 89.6592C144.452 89.9404 145.07 90.2041 145.885 90.4502C147.385 90.9014 148.478 91.4609 149.163 92.1289C149.849 92.7969 150.191 93.6289 150.191 94.625C150.191 95.7324 149.772 96.6025 148.935 97.2354C148.097 97.8623 146.969 98.1758 145.551 98.1758C144.566 98.1758 143.67 97.9971 142.861 97.6396C142.053 97.2764 141.435 96.7812 141.007 96.1543C140.585 95.5273 140.374 94.8008 140.374 93.9746H143.02C143.02 95.3867 143.863 96.0928 145.551 96.0928C146.178 96.0928 146.667 95.9668 147.019 95.7148C147.37 95.457 147.546 95.0996 147.546 94.6426Z" fill="white"/>
    <circle cx="76.5" cy="172.5" r="31.5" fill="white"/>
    <circle cx="76.5" cy="173.5" r="21" stroke="black" stroke-opacity="0.5"/>
    <mask id="path-5-inside-1" fill="white">
    <path fill-rule="evenodd" clip-rule="evenodd" d="M113 142.777C110.955 144.669 110 147.846 110 151.446C110 157.245 112.477 159.946 118 159.946C123.523 159.946 126 157.245 126 151.446C126 147.846 125.045 144.669 123 142.777V150.946C123 151.498 122.552 151.946 122 151.946C121.448 151.946 121 151.498 121 150.946V141.5C120.392 141.251 119.726 141.081 119 141V150.946C119 151.498 118.552 151.946 118 151.946C117.448 151.946 117 151.498 117 150.946V141C116.274 141.081 115.608 141.251 115 141.5V150.946C115 151.498 114.552 151.946 114 151.946C113.448 151.946 113 151.498 113 150.946V142.777Z"/>
    </mask>
    <path fill-rule="evenodd" clip-rule="evenodd" d="M113 142.777C110.955 144.669 110 147.846 110 151.446C110 157.245 112.477 159.946 118 159.946C123.523 159.946 126 157.245 126 151.446C126 147.846 125.045 144.669 123 142.777V150.946C123 151.498 122.552 151.946 122 151.946C121.448 151.946 121 151.498 121 150.946V141.5C120.392 141.251 119.726 141.081 119 141V150.946C119 151.498 118.552 151.946 118 151.946C117.448 151.946 117 151.498 117 150.946V141C116.274 141.081 115.608 141.251 115 141.5V150.946C115 151.498 114.552 151.946 114 151.946C113.448 151.946 113 151.498 113 150.946V142.777Z" fill="white"/>
    <path d="M113 142.777H113.2V142.32L112.864 142.63L113 142.777ZM123 142.777L123.136 142.63L122.8 142.32V142.777H123ZM121 141.5H121.2V141.366L121.076 141.315L121 141.5ZM119 141L119.022 140.801L118.8 140.776V141H119ZM117 141H117.2V140.776L116.978 140.801L117 141ZM115 141.5L114.924 141.315L114.8 141.366V141.5H115ZM112.864 142.63C110.761 144.576 109.8 147.819 109.8 151.446H110.2C110.2 147.873 111.149 144.762 113.136 142.924L112.864 142.63ZM109.8 151.446C109.8 154.369 110.424 156.554 111.783 158.007C113.145 159.463 115.209 160.146 118 160.146V159.746C115.268 159.746 113.332 159.078 112.075 157.734C110.815 156.387 110.2 154.322 110.2 151.446H109.8ZM118 160.146C120.791 160.146 122.855 159.463 124.217 158.007C125.576 156.554 126.2 154.369 126.2 151.446H125.8C125.8 154.322 125.185 156.387 123.925 157.734C122.668 159.078 120.732 159.746 118 159.746V160.146ZM126.2 151.446C126.2 147.819 125.239 144.576 123.136 142.63L122.864 142.924C124.851 144.762 125.8 147.873 125.8 151.446H126.2ZM122.8 142.777V150.946H123.2V142.777H122.8ZM122.8 150.946C122.8 151.388 122.442 151.746 122 151.746V152.146C122.663 152.146 123.2 151.609 123.2 150.946H122.8ZM122 151.746C121.558 151.746 121.2 151.388 121.2 150.946H120.8C120.8 151.609 121.337 152.146 122 152.146V151.746ZM121.2 150.946V141.5H120.8V150.946H121.2ZM121.076 141.315C120.45 141.059 119.766 140.884 119.022 140.801L118.978 141.199C119.686 141.278 120.334 141.444 120.924 141.685L121.076 141.315ZM118.8 141V150.946H119.2V141H118.8ZM118.8 150.946C118.8 151.388 118.442 151.746 118 151.746V152.146C118.663 152.146 119.2 151.609 119.2 150.946H118.8ZM118 151.746C117.558 151.746 117.2 151.388 117.2 150.946H116.8C116.8 151.609 117.337 152.146 118 152.146V151.746ZM117.2 150.946V141H116.8V150.946H117.2ZM116.978 140.801C116.234 140.884 115.55 141.059 114.924 141.315L115.076 141.685C115.666 141.444 116.314 141.278 117.022 141.199L116.978 140.801ZM114.8 141.5V150.946H115.2V141.5H114.8ZM114.8 150.946C114.8 151.388 114.442 151.746 114 151.746V152.146C114.663 152.146 115.2 151.609 115.2 150.946H114.8ZM114 151.746C113.558 151.746 113.2 151.388 113.2 150.946H112.8C112.8 151.609 113.337 152.146 114 152.146V151.746ZM113.2 150.946V142.777H112.8V150.946H113.2Z" fill="black" mask="url(#path-5-inside-1)"/>
    <path d="M116.038 160.001C116.07 158.941 116.939 158.1 118 158.1C119.061 158.1 119.93 158.941 119.962 160.001C120.096 164.394 120.4 174.866 120.4 179.5C120.4 184.121 120.66 193.262 120.805 197.999C120.854 199.586 119.581 200.9 117.992 200.9C116.41 200.9 115.139 199.598 115.182 198.016C115.324 192.777 115.6 182.222 115.6 179.5C115.6 174.866 115.904 164.394 116.038 160.001Z" fill="white" stroke="black" stroke-width="0.2"/>
    <path d="M34.4607 143C33.4241 143 34.4607 171 34.4607 171H38.5706C39.0889 171 39.0889 159.565 38.8298 155.402C38.5706 151.24 35.4974 143 34.4607 143Z" fill="white" stroke="black" stroke-width="0.2"/>
    <path d="M34.1506 172.333C34.2112 171.08 35.2452 170.1 36.5 170.1C37.7548 170.1 38.7888 171.08 38.8493 172.333C39.0195 175.854 39.3167 182.442 39.3167 185.5C39.3167 188.437 39.5524 193.905 39.7241 197.498C39.8126 199.349 38.338 200.9 36.4856 200.9C34.6436 200.9 33.1738 199.365 33.2532 197.525C33.4259 193.518 33.6833 187.255 33.6833 185.5C33.6833 182.442 33.9805 175.854 34.1506 172.333Z" fill="white" stroke="black" stroke-width="0.2"/>
</svg> 